<svg id="Layer_1" data-name="Layer 1" xmlns="http://www.w3.org/2000/svg" viewBox="0 0 200 56"><defs><style>.cls-1{fill:#003087;}.cls-2{fill:#009cde;}.cls-3{fill:#012169;}</style></defs><title>PG-icon</title><g id="Group_1264" data-name="Group 1264"><path id="Path_995" data-name="Path 995" class="cls-1" d="M38.43,8C36.18,5.39,32.1,4.29,26.9,4.29H11.79A2.17,2.17,0,0,0,9.65,6.11L3.37,46a1.3,1.3,0,0,0,1.28,1.5H14l2.34-14.86-.08.47a2.16,2.16,0,0,1,2.13-1.82H22.8c8.71,0,15.53-3.54,17.52-13.77.06-.3.11-.6.15-.88a9.68,9.68,0,0,0-2-8.69"/><path id="Path_996" data-name="Path 996" class="cls-2" d="M152.59,26.94c-.57,3.74-3.43,3.74-6.19,3.74h-1.57l1.11-7a.86.86,0,0,1,.85-.74h.73c1.88,0,3.66,0,4.58,1.08a3.49,3.49,0,0,1,.5,2.91m-1.2-9.77H141a1.45,1.45,0,0,0-1.43,1.23l-4.22,26.72a.85.85,0,0,0,.85,1h5.35a1,1,0,0,0,1-.85l1.2-7.59a1.45,1.45,0,0,1,1.43-1.22h3.3c6.87,0,10.84-3.32,11.87-9.91A8,8,0,0,0,159,19.82a9.67,9.67,0,0,0-7.6-2.66"/><path id="Path_997" data-name="Path 997" class="cls-1" d="M78.21,26.94c-.57,3.74-3.43,3.74-6.2,3.74H70.44l1.11-7A.86.86,0,0,1,72.4,23h.72C75,23,76.79,23,77.7,24A3.46,3.46,0,0,1,78.21,27M77,17.18H66.58a1.46,1.46,0,0,0-1.44,1.23L60.93,45.13a.87.87,0,0,0,.86,1h5a1.45,1.45,0,0,0,1.43-1.22l1.14-7.22a1.45,1.45,0,0,1,1.43-1.22h3.3c6.87,0,10.84-3.33,11.87-9.92a8,8,0,0,0-1.33-6.73A9.67,9.67,0,0,0,77,17.16m24.21,19.36a5.56,5.56,0,0,1-5.63,4.77,3.87,3.87,0,0,1-4.14-4.85,5.58,5.58,0,0,1,5.6-4.8A4.19,4.19,0,0,1,100.37,33a4.32,4.32,0,0,1,.85,3.53m7-9.72h-5a.88.88,0,0,0-.86.74l-.21,1.39-.36-.5a7.11,7.11,0,0,0-5.89-2.1A11.49,11.49,0,0,0,84.71,36.39a9.44,9.44,0,0,0,1.86,7.67,7.83,7.83,0,0,0,6.29,2.54,9.58,9.58,0,0,0,6.91-2.86l-.22,1.39a.87.87,0,0,0,.86,1h4.49a1.45,1.45,0,0,0,1.43-1.22L109,27.82a.88.88,0,0,0-.87-1"/><path id="Path_998" data-name="Path 998" class="cls-2" d="M175.6,36.54A5.57,5.57,0,0,1,170,41.31a3.87,3.87,0,0,1-4.14-4.85,5.59,5.59,0,0,1,5.6-4.81A4.21,4.21,0,0,1,174.76,33a4.35,4.35,0,0,1,.84,3.53m7-9.72h-5a.88.88,0,0,0-.86.74l-.22,1.4-.35-.51a7.13,7.13,0,0,0-5.9-2.1,11.49,11.49,0,0,0-11.14,10A9.37,9.37,0,0,0,161,44.07a7.82,7.82,0,0,0,6.29,2.54,9.6,9.6,0,0,0,6.91-2.86l-.22,1.39a.88.88,0,0,0,.19.7.89.89,0,0,0,.66.3h4.5a1.45,1.45,0,0,0,1.43-1.22l2.7-17.09a.91.91,0,0,0-.2-.7.87.87,0,0,0-.67-.31"/><path id="Path_999" data-name="Path 999" class="cls-1" d="M134.78,26.82h-5a1.45,1.45,0,0,0-1.2.64l-6.92,10.19-2.94-9.79a1.45,1.45,0,0,0-1.39-1h-4.93a.89.89,0,0,0-.71.37.86.86,0,0,0-.11.78l5.52,16.23-5.2,7.34a.88.88,0,0,0-.06.9.87.87,0,0,0,.77.47h5a1.45,1.45,0,0,0,1.19-.62l16.7-24.1a.84.84,0,0,0,.06-.89.87.87,0,0,0-.77-.47"/><path id="Path_1000" data-name="Path 1000" class="cls-2" d="M188.45,17.91l-4.28,27.23a.87.87,0,0,0,.86,1h4.31a1.45,1.45,0,0,0,1.43-1.22L195,18.18a.85.85,0,0,0-.2-.7.87.87,0,0,0-.66-.31h-4.81a.87.87,0,0,0-.86.74"/><path id="Path_1001" data-name="Path 1001" class="cls-1" d="M38.43,8C36.18,5.39,32.1,4.29,26.9,4.29H11.79A2.17,2.17,0,0,0,9.65,6.11L3.37,46a1.3,1.3,0,0,0,1.28,1.5H14l2.34-14.86-.08.47a2.16,2.16,0,0,1,2.13-1.82H22.8c8.71,0,15.53-3.54,17.52-13.77.06-.3.11-.6.15-.88a9.68,9.68,0,0,0-2-8.69"/><path id="Path_1002" data-name="Path 1002" class="cls-1" d="M18.83,16.69A1.88,1.88,0,0,1,20.7,15.1H32.55a23.23,23.23,0,0,1,3.91.27,16.41,16.41,0,0,1,1.94.43,10.38,10.38,0,0,1,2.08.83,9.65,9.65,0,0,0-2-8.69c-2.25-2.56-6.32-3.66-11.52-3.66H11.79A2.15,2.15,0,0,0,9.66,6.1L3.37,46a1.26,1.26,0,0,0,.29,1,1.31,1.31,0,0,0,1,.46H14l2.34-14.86Z"/><path id="Path_1003" data-name="Path 1003" class="cls-2" d="M40.47,16.63c0,.3-.1.59-.15.88-2,10.24-8.81,13.77-17.51,13.77H18.37a2.16,2.16,0,0,0-2.13,1.82L14,47.49l-.64,4.08a1.16,1.16,0,0,0,1.13,1.32h7.86a1.9,1.9,0,0,0,1.87-1.6l.07-.4,1.48-9.39.1-.52a1.87,1.87,0,0,1,1.87-1.59h1.18c7.61,0,13.57-3.1,15.32-12a10.27,10.27,0,0,0-1.58-9,7.56,7.56,0,0,0-2.15-1.66"/><path id="Path_1004" data-name="Path 1004" class="cls-3" d="M38.39,15.81c-.31-.09-.62-.17-.94-.24s-.66-.14-1-.19a24.34,24.34,0,0,0-3.91-.29H20.69a1.9,1.9,0,0,0-1.87,1.6l-2.49,16-.07.46a2.15,2.15,0,0,1,2.13-1.82H22.8c8.7,0,15.52-3.54,17.51-13.77.06-.3.11-.59.15-.88A9.48,9.48,0,0,0,38.82,16l-.44-.14"/></g></svg>